<svg width="63" height="63" viewBox="0 0 63 63" fill="none" xmlns="http://www.w3.org/2000/svg">
<path d="M54.6742 51.4828C59.7316 45.6177 62.377 38.0531 62.0769 30.3145C61.7769 22.5758 58.5537 15.2388 53.0574 9.7829C47.5611 4.32699 40.2005 1.15805 32.4599 0.915086C24.7193 0.672128 17.1744 3.37323 11.3468 8.47371C5.51912 13.5742 1.84219 20.6946 1.05742 28.3992C0.272643 36.1038 2.43841 43.8194 7.118 49.9901C11.7976 56.1608 18.6429 60.3277 26.2735 61.6504C33.9042 62.9731 41.7525 61.3533 48.236 57.1177L43.365 49.6617C38.7685 52.6646 33.2044 53.8129 27.7946 52.8752C22.3849 51.9374 17.5319 48.9833 14.2143 44.6086C10.8967 40.2338 9.3613 34.7639 9.91766 29.3017C10.474 23.8395 13.0808 18.7915 17.2123 15.1755C21.3438 11.5595 26.6928 9.64455 32.1805 9.81679C37.6682 9.98904 42.8865 12.2357 46.7831 16.1036C50.6797 19.9716 52.9648 25.1732 53.1775 30.6595C53.3902 36.1458 51.5148 41.5087 47.9294 45.6668L54.6742 51.4828Z" fill="#00E8B5"/>
<circle cx="31.5001" cy="31.5" r="11.9" fill="#C74AE3"/>
</svg>
