<svg width="55" height="61" viewBox="0 0 55 61" fill="none" xmlns="http://www.w3.org/2000/svg">
<path fill-rule="evenodd" clip-rule="evenodd" d="M20.5299 3.96443C16.8035 5.81085 13.7548 7.37329 13.7554 7.43684C13.7571 7.60086 22.6989 11.9083 23.0163 11.8978C23.1607 11.8932 24.208 11.4347 25.3435 10.8789L27.4085 9.86865L29.6637 10.9713L31.9188 12.0741L35.6119 10.4956C41.1767 8.11707 41.7547 7.85643 41.6641 7.76886C41.5439 7.65267 39.5479 6.63273 34.1326 3.92092C31.5155 2.61027 28.9754 1.32522 28.4877 1.06519C28.0002 0.805161 27.5347 0.595984 27.4533 0.600033C27.372 0.604082 24.2564 2.11807 20.5299 3.96443ZM4.18594 12.0148L0.306803 13.9208V22.2855C0.306803 26.8861 0.35774 30.6501 0.420221 30.6501C0.482485 30.6501 2.39103 29.8632 4.66133 28.9014L8.78917 27.1526V18.3356L10.8063 19.381C12.3607 20.1858 13.916 20.9889 15.4722 21.7904L18.1209 23.1545L19.2996 22.6476C20.0387 22.3291 20.7764 22.0076 21.5126 21.6829C22.0815 21.4309 23.478 20.8326 24.6159 20.3531C25.7537 19.8734 26.807 19.3911 26.9564 19.2811C27.1548 19.1351 24.7355 17.8634 18.0082 14.5774C12.9372 12.1004 8.62553 10.0817 8.42669 10.0913C8.22785 10.101 6.31952 10.9665 4.18594 12.0148ZM42.3632 12.5501C39.7213 13.6845 37.5578 14.6581 37.5554 14.7136C37.5531 14.7691 38.993 15.5835 40.7555 16.5231C42.5177 17.463 43.9597 18.2822 43.9597 18.3439C43.9597 18.4054 42.4002 19.1242 40.4944 19.9414C38.5883 20.7584 33.7706 22.8279 29.7881 24.5404L16.4439 30.2778C13.0872 31.7211 10.0615 33.0221 9.72017 33.1692C2.86389 36.1215 0.979372 36.9407 0.720575 37.0813C0.460335 37.2229 0.40139 38.0454 0.35507 42.1735L0.299805 47.0971L3.76871 48.7784L7.23754 50.4595L12.0476 48.3947C14.6932 47.2591 16.8577 46.2704 16.8577 46.1976C16.8577 46.125 16.3688 45.822 15.7716 45.524C15.174 45.2261 13.9406 44.5664 13.0303 44.0579C12.12 43.5493 11.2124 43.0827 11.0131 43.0208C10.8139 42.9591 10.6538 42.8511 10.6571 42.7807C10.6604 42.7105 12.7785 41.7535 15.3638 40.6539C20.3851 38.5184 24.2278 36.8725 32.4776 33.3239C36.1666 31.7374 39.856 30.1519 43.5459 28.5673C46.7889 27.175 50.5594 25.5489 51.9248 24.9537L54.4075 23.8717L54.4627 18.892L54.5182 13.9125L50.9998 12.1948C49.0647 11.2501 47.4106 10.4795 47.3239 10.4823C47.2372 10.4849 45.0049 11.4153 42.3632 12.5501ZM53.4649 30.5148C52.9464 30.7557 51.9223 31.2067 51.1891 31.517C50.456 31.8272 49.0647 32.4244 48.0974 32.8442L46.3389 33.6071L46.2988 37.9788C46.2766 40.3832 46.1835 42.3397 46.0919 42.327C45.8838 42.2976 42.5879 40.6898 39.2748 39.0011C36.8836 37.7825 36.7334 37.7341 36.1715 37.9988C35.8467 38.1519 33.9051 38.9801 31.8569 39.8397C29.8087 40.6991 28.0662 41.4584 27.9842 41.5272C27.9025 41.5958 32.0247 43.721 37.1449 46.2501L46.4542 50.8483L50.4309 48.8915C52.6179 47.8155 54.4776 46.8339 54.5632 46.7104C54.756 46.4328 54.7395 30.0387 54.5465 30.0609C54.4702 30.0696 53.9833 30.2739 53.4649 30.5148ZM31.4432 49.7573C30.7534 50.0394 30.0637 50.3219 29.3743 50.6048C27.2924 51.4616 27.7004 51.49 25.2235 50.3171C23.5738 49.536 22.8628 49.295 22.5541 49.412C22.3226 49.4997 20.33 50.3524 18.1259 51.3068C15.9219 52.2612 14.0422 53.042 13.9487 53.042C13.0239 53.042 14.5613 53.9157 20.4935 56.7621L27.4507 60.1L30.3779 58.7254C31.9879 57.9693 35.2351 56.4553 37.5943 55.361C39.9532 54.2664 41.8541 53.3424 41.8185 53.3076C41.7826 53.2728 39.806 52.3074 37.4259 51.1621L33.0983 49.0801L31.4432 49.7573Z" fill="#05A3C9"/>
</svg>
